<svg width="365" height="282" viewBox="0 0 365 282" fill="none" xmlns="http://www.w3.org/2000/svg">
<path d="M0.5 41.5H364.5V236.286L341.658 258.136L341.654 258.139L316.802 281.5H0.5V41.5Z" fill="white" stroke="#E9E9E9"/>
<path d="M36 0H112V38V61L102.5 70.5L93 80H74H36V0Z" fill="#D3FCFF"/>
<path fill-rule="evenodd" clip-rule="evenodd" d="M74.3755 23.838L88.175 30.7003C88.5125 30.8508 88.663 31.1883 88.663 31.5258C88.2875 37.6753 86.7125 42.6253 84.2375 46.6753C81.7625 50.7253 78.4253 53.8008 74.4498 56.1631C74.1503 56.3502 73.8128 56.3136 73.5498 56.1631C69.6121 53.8006 66.2375 50.7253 63.7621 46.6753C61.3251 42.5875 59.7499 37.6375 59.3745 31.4876C59.3365 31.1122 59.5615 30.8126 59.8624 30.6622L73.6242 23.8376C73.8492 23.6872 74.1501 23.7251 74.3751 23.8376L74.3755 23.838ZM75.388 44.5002H72.5755C72.463 44.5002 72.3884 44.4622 72.2759 44.4622C71.8259 44.3118 71.6009 43.8252 71.7514 43.3752L72.6514 40.8257C72.2014 40.6007 71.7894 40.2252 71.5264 39.8132C71.2269 39.3632 71.0384 38.8007 71.0384 38.2382C71.0384 37.4127 71.3759 36.7012 71.9005 36.1752C72.425 35.6507 73.138 35.3132 73.9634 35.3132C74.7509 35.3132 75.5005 35.6507 76.0264 36.1752C76.5509 36.6997 76.8884 37.4127 76.8884 38.2382C76.8884 38.8007 76.7014 39.3632 76.4384 39.8132C76.1755 40.2252 75.7634 40.6007 75.3134 40.8257L76.1755 43.3387C76.2134 43.4512 76.25 43.5637 76.25 43.6762C76.25 44.1248 75.8745 44.5002 75.388 44.5002V44.5002Z" fill="#00E1F0"/>
</svg>
