<svg width="365" height="282" viewBox="0 0 365 282" fill="none" xmlns="http://www.w3.org/2000/svg">
<path d="M0.5 41.5H0.834488H1.66755H2.49919H3.32941H4.15822H4.98562H5.81163H6.63624H7.45946H8.2813H9.10176H9.92085H10.7386H11.5549H12.3699H13.1836H13.9959H14.8069H15.6165H16.4249H17.2319H18.0375H18.8419H19.645H20.4467H21.2472H22.0464H22.8443H23.6409H24.4363H25.2304H26.0232H26.8148H27.6051H28.3942H29.182H29.9687H30.7541H31.5382H32.3212H33.1029H33.8835H34.6628H35.441H36.2179H36.9937H37.7683H38.5417H39.314H40.0851H40.8551H41.6239H42.3916H43.1581H43.9235H44.6878H45.4509H46.213H46.9739H47.7337H48.4925H49.2501H50.0067H50.7621H51.5165H52.2699H53.0221H53.7733H54.5235H55.2726H56.0207H56.7677H57.5137H58.2587H59.0026H59.7456H60.4875H61.2284H61.9684H62.7073H63.4453H64.1823H64.9183H65.6533H66.3874H67.1205H67.8527H68.5839H69.3142H70.0435H70.7719H71.4994H72.226H72.9516H73.6764H74.4002H75.1232H75.8453H76.5664H77.2867H78.0062H78.7247H79.4424H80.1593H80.8753H81.5904H82.3047H83.0182H83.7308H84.4426H85.1536H85.8638H86.5732H87.2818H87.9896H88.6966H89.4028H90.1082H90.8129H91.5168H92.2199H92.9223H93.6239H94.3248H95.025H95.7244H96.423H97.121H97.8183H98.5148H99.2106H99.9057H100.6H101.294H101.987H102.679H103.371H104.062H104.753H105.442H106.131H106.82H107.508H108.195H108.881H109.567H110.252H110.937H111.621H112.305H112.988H113.67H114.352H115.033H115.713H116.393H117.073H117.752H118.43H119.108H119.785H120.462H121.138H121.814H122.489H123.164H123.838H124.511H125.185H125.857H126.53H127.201H127.872H128.543H129.214H129.883H130.553H131.222H131.89H132.559H133.226H133.894H134.56H135.227H135.893H136.559H137.224H137.889H138.553H139.217H139.881H140.544H141.207H141.87H142.532H143.194H143.856H144.517H145.178H145.839H146.499H147.159H147.819H148.479H149.138H149.797H150.455H151.114H151.772H152.429H153.087H153.744H154.401H155.058H155.715H156.371H157.027H157.683H158.339H158.994H159.649H160.304H160.959H161.614H162.268H162.923H163.577H164.231H164.885H165.539H166.192H166.845H167.499H168.152H168.805H169.458H170.111H170.763H171.416H172.068H172.721H173.373H174.025H174.678H175.33H175.982H176.634H177.286H177.938H178.589H179.241H179.893H180.545H181.197H181.848H182.5H183.152H183.803H184.455H185.107H185.759H186.411H187.062H187.714H188.366H189.018H189.67H190.322H190.975H191.627H192.279H192.932H193.584H194.237H194.889H195.542H196.195H196.848H197.501H198.155H198.808H199.461H200.115H200.769H201.423H202.077H202.732H203.386H204.041H204.696H205.351H206.006H206.661H207.317H207.973H208.629H209.285H209.942H210.599H211.256H211.913H212.571H213.228H213.886H214.545H215.203H215.862H216.521H217.181H217.841H218.501H219.161H219.822H220.483H221.144H221.806H222.468H223.13H223.793H224.456H225.119H225.783H226.447H227.111H227.776H228.441H229.107H229.773H230.44H231.106H231.774H232.441H233.11H233.778H234.447H235.117H235.786H236.457H237.128H237.799H238.471H239.143H239.815H240.489H241.162H241.836H242.511H243.186H243.862H244.538H245.215H245.892H246.57H247.248H247.927H248.607H249.287H249.967H250.648H251.33H252.012H252.695H253.379H254.063H254.748H255.433H256.119H256.805H257.492H258.18H258.869H259.558H260.247H260.938H261.629H262.321H263.013H263.706H264.4H265.094H265.789H266.485H267.182H267.879H268.577H269.276H269.975H270.675H271.376H272.078H272.78H273.483H274.187H274.892H275.597H276.303H277.01H277.718H278.427H279.136H279.846H280.557H281.269H281.982H282.695H283.41H284.125H284.841H285.558H286.275H286.994H287.713H288.434H289.155H289.877H290.6H291.324H292.048H292.774H293.501H294.228H294.956H295.686H296.416H297.147H297.879H298.613H299.347H300.082H300.818H301.555H302.293H303.032H303.772H304.512H305.254H305.997H306.741H307.486H308.232H308.979H309.727H310.477H311.227H311.978H312.73H313.483H314.238H314.993H315.75H316.508H317.266H318.026H318.787H319.549H320.312H321.077H321.842H322.608H323.376H324.145H324.915H325.686H326.458H327.232H328.006H328.782H329.559H330.337H331.117H331.897H332.679H333.462H334.246H335.031H335.818H336.606H337.395H338.185H338.977H339.77H340.564H341.359H342.156H342.954H343.753H344.553H345.355H346.158H346.962H347.768H348.575H349.383H350.193H351.004H351.816H352.63H353.445H354.261H355.079H355.898H356.719H357.541H358.364H359.188H360.014H360.842H361.671H362.501H363.332H364.166H364.5V236.286L341.658 258.136L341.654 258.139L316.802 281.5H0.5V41.5Z" fill="white" stroke="#E9E9E9"/>
<path d="M36 0H112V38V61L102.5 70.5L93 80H74H36V0Z" fill="#FFEDE8"/>
<path d="M85.7204 38.6408H75.3204C74.8001 38.6408 74.4001 38.2408 74.4001 37.7204V27.3204C74.4001 26.8001 73.9594 26.3611 73.4407 26.4001C69.8407 26.6798 66.7203 28.5204 64.6407 31.2409C63.4407 30.5612 62.0407 30.1612 60.5611 30.1612C55.8407 30.1612 52.0407 34.0019 52.0407 38.6816C52.0407 43.3614 55.8814 47.202 60.5611 47.202C62.0814 47.202 63.4814 46.7614 64.7203 46.0817C66.961 49.002 70.4407 50.9225 74.2795 50.9613C80.8387 51.041 86.1999 46.0409 86.6795 39.6409C86.7201 39.08 86.2795 38.6409 85.7202 38.6409L85.7204 38.6408ZM54.1596 38.6798C54.1596 35.1595 57.0002 32.3206 60.5188 32.3206C64.0391 32.3206 66.878 35.1613 66.878 38.6798C66.878 42.2001 64.0374 45.039 60.5188 45.039C57 45.0406 54.1596 42.1593 54.1596 38.6798Z" fill="#FF7F5C"/>
<path d="M78.6796 23.0408C78.1593 23.0002 77.7202 23.4408 77.7202 23.9611V34.3611C77.7202 34.8815 78.1202 35.2815 78.6406 35.2815H89.0406C89.5609 35.2815 89.9999 34.8408 89.9609 34.3221C89.5202 28.3205 84.7201 23.5205 78.6797 23.0409L78.6796 23.0408Z" fill="#FF7F5C"/>
<path d="M60.8796 37.8796H60.1999C59.9999 37.8796 59.8405 37.8 59.6796 37.639C59.5593 37.4796 59.4796 37.3187 59.5202 37.1187C59.5608 36.7593 59.8796 36.5187 60.2405 36.5187H60.9999C61.1999 36.5187 61.3593 36.639 61.3999 36.839C61.4405 36.9984 61.5593 37.1187 61.7593 37.1187H62.6389C62.7593 37.1187 62.8389 37.0781 62.9186 36.9984C62.9983 36.9187 62.9983 36.839 62.9983 36.7187C62.9186 35.7984 62.1983 35.0781 61.3186 34.9593V34.239C61.3186 34.039 61.1593 33.8796 60.9593 33.8796H60.0796C59.8796 33.8796 59.7202 34.039 59.7202 34.239V34.9999C58.5999 35.2406 57.7999 36.2796 57.9202 37.4406C58.0405 38.5999 59.0405 39.4812 60.2405 39.4812H60.7999C60.9999 39.4812 61.1593 39.5609 61.3202 39.7218C61.4405 39.8812 61.5202 40.0422 61.4796 40.2422C61.439 40.6015 61.1202 40.8422 60.7593 40.8422H59.9999C59.7999 40.8422 59.6405 40.7218 59.5999 40.5218C59.5593 40.3625 59.4405 40.2422 59.2405 40.2422H58.3608C58.2405 40.2422 58.1608 40.2828 58.0812 40.3625C58.0015 40.4422 58.0015 40.5218 58.0015 40.6422C58.0812 41.5625 58.8015 42.2828 59.6811 42.4015V43.1218C59.6811 43.3218 59.8405 43.4812 60.0405 43.4812H60.9202C61.1202 43.4812 61.2796 43.3218 61.2796 43.1218V42.3625C62.2389 42.1219 62.9593 41.3625 63.0796 40.4031C63.1593 39.7625 62.9202 39.1234 62.5202 38.6438C62.1202 38.1594 61.5202 37.8797 60.8796 37.8797V37.8796Z" fill="#FF7F5C"/>
</svg>
