<svg width="365" height="282" viewBox="0 0 365 282" fill="none" xmlns="http://www.w3.org/2000/svg">
<path d="M0.5 41.5H364.5V236.286L341.658 258.136L341.654 258.139L316.802 281.5H0.5V41.5Z" fill="white" stroke="#E9E9E9"/>
<path d="M36 0H112V38V61L102.5 70.5L93 80H74H36V0Z" fill="#E2E1FF"/>
<path d="M62.5729 48.0831C62.9385 48.0831 63.2985 47.9875 63.6163 47.8046C62.7121 46.7542 62.7121 45.1989 63.6163 44.1485C63.0482 43.8236 62.3619 43.7815 61.7586 44.0346C61.1553 44.2863 60.7039 44.8052 60.5366 45.4366C60.3693 46.0694 60.5043 46.743 60.9036 47.2619C61.3016 47.7794 61.9189 48.0831 62.5728 48.0831L62.5729 48.0831Z" fill="#3734A9"/>
<path d="M64.6792 45.9767C64.6792 47.8203 63.64 47.8203 63.64 45.9767C63.64 44.1331 64.6792 44.1331 64.6792 45.9767Z" fill="#3734A9"/>
<path d="M73.6119 44.7109H87.5339V47.2422H73.6119V44.7109Z" fill="#3734A9"/>
<path d="M65.7466 48.083C66.402 48.083 67.0193 47.7807 67.4187 47.2618C67.8166 46.7429 67.953 46.0693 67.7857 45.4365C67.6169 44.8037 67.1655 44.2848 66.5609 44.0331C65.9576 43.7813 65.2713 43.8235 64.7032 44.1484C65.6074 45.1989 65.6074 46.7542 64.7032 47.8045C65.021 47.9874 65.381 48.083 65.7466 48.083L65.7466 48.083Z" fill="#3734A9"/>
<path d="M57.6172 33.8505H90.3829V38.1409H57.6172V33.8505Z" fill="#3734A9"/>
<path d="M57.6172 51.4976H90.3829V38.8444H57.6172V51.4976ZM72.9089 44.3596C72.9089 44.1655 73.0664 44.008 73.2605 44.008H87.8855C87.9783 44.008 88.0683 44.0446 88.1344 44.1107C88.2005 44.1767 88.237 44.2667 88.237 44.3596V47.5939C88.237 47.6868 88.2005 47.7768 88.1344 47.8429C88.0683 47.9089 87.9783 47.9455 87.8855 47.9455H73.2605C73.0664 47.9455 72.9089 47.788 72.9089 47.594V44.3596ZM62.5729 43.1671C63.1397 43.1671 63.6937 43.3386 64.1592 43.6607C65.0198 43.07 66.1364 43.0053 67.0589 43.4905C67.9814 43.9771 68.5594 44.9333 68.5594 45.9767C68.5594 47.0202 67.9814 47.9764 67.0589 48.463C66.1364 48.9481 65.0198 48.8834 64.1606 48.2928H64.1592C63.4237 48.7976 62.4914 48.9228 61.649 48.6289C60.8052 48.3364 60.1528 47.66 59.8884 46.8078C59.624 45.9542 59.7815 45.0275 60.3117 44.3089C60.8404 43.5917 61.68 43.167 62.5729 43.167L62.5729 43.1671Z" fill="#3734A9"/>
<path d="M57.6172 28.5023V33.147H90.3829V28.5023H57.6172ZM60.2961 30.9731H59.2569V30.27H60.2961V30.9731ZM67.8194 30.9731H61.127V30.27H67.8194V30.9731Z" fill="#3734A9"/>
</svg>
